<svg xmlns="http://www.w3.org/2000/svg" viewBox="0 0 512 512" width="512" height="512" role="img" aria-label="OrbitDocs mark"><title>OrbitDocs mark</title><defs><linearGradient id="od-planet" gradientUnits="userSpaceOnUse" x1="120" y1="110" x2="400" y2="410"><stop offset="0.1" stop-color="#08b6fc"/><stop offset="0.2" stop-color="#02aefa"/><stop offset="0.34" stop-color="#0485f7"/><stop offset="0.58" stop-color="#0c4ee0"/><stop offset="0.78" stop-color="#6650fb"/><stop offset="0.92" stop-color="#7a2ef8"/></linearGradient><radialGradient id="od-core" gradientUnits="userSpaceOnUse" cx="260" cy="266" r="178"><stop offset="0" stop-color="#000a35"/><stop offset="0.55" stop-color="#001352" stop-opacity="0.97"/><stop offset="0.7" stop-color="#00217a" stop-opacity="0.9"/><stop offset="0.8" stop-color="#0032b0" stop-opacity="0.74"/><stop offset="0.9" stop-color="#003cc4" stop-opacity="0.42"/><stop offset="0.97" stop-color="#003cc4" stop-opacity="0.08"/><stop offset="1" stop-color="#0040c8" stop-opacity="0"/></radialGradient><radialGradient id="od-gloss" gradientUnits="userSpaceOnUse" cx="150" cy="140" r="120"><stop offset="0" stop-color="#ffffff" stop-opacity="0.14"/><stop offset="0.5" stop-color="#bfe9ff" stop-opacity="0.05"/><stop offset="1" stop-color="#bfe9ff" stop-opacity="0"/></radialGradient><linearGradient id="od-ringBack" gradientUnits="userSpaceOnUse" x1="-260" y1="0" x2="260" y2="0"><stop offset="0" stop-color="#0d5ff7"/><stop offset="0.5" stop-color="#0453f2"/><stop offset="1" stop-color="#0a57f4"/></linearGradient><radialGradient id="od-ringFront" gradientUnits="userSpaceOnUse" cx="20" cy="110" r="270"><stop offset="0" stop-color="#7062fb"/><stop offset="0.45" stop-color="#5358fa"/><stop offset="0.8" stop-color="#2459f7"/><stop offset="1" stop-color="#0b5af6"/></radialGradient><linearGradient id="od-ringShadow" gradientUnits="userSpaceOnUse" x1="-220" y1="0" x2="200" y2="0"><stop offset="0" stop-color="#000a35" stop-opacity="0.8"/><stop offset="0.55" stop-color="#000a35" stop-opacity="0.75"/><stop offset="1" stop-color="#000a35" stop-opacity="0"/></linearGradient><linearGradient id="od-ringHi" gradientUnits="userSpaceOnUse" x1="-230" y1="0" x2="230" y2="0"><stop offset="0.05" stop-color="#ffffff" stop-opacity="0"/><stop offset="0.3" stop-color="#ffffff" stop-opacity="0.95"/><stop offset="0.66" stop-color="#eeeaff" stop-opacity="0.9"/><stop offset="0.92" stop-color="#ffffff" stop-opacity="0"/></linearGradient><linearGradient id="od-doc" gradientUnits="userSpaceOnUse" x1="240" y1="146" x2="200" y2="362"><stop offset="0" stop-color="#ffffff"/><stop offset="0.55" stop-color="#f4f6fd"/><stop offset="1" stop-color="#cbd6f6"/></linearGradient><linearGradient id="od-fold" gradientUnits="userSpaceOnUse" x1="302" y1="150" x2="340" y2="210"><stop offset="0" stop-color="#b4b8fb"/><stop offset="1" stop-color="#7f87f4"/></linearGradient><linearGradient id="od-line" gradientUnits="userSpaceOnUse" x1="200" y1="0" x2="325" y2="0"><stop offset="0" stop-color="#5a74f4"/><stop offset="1" stop-color="#8c96f7"/></linearGradient><radialGradient id="od-sat" gradientUnits="userSpaceOnUse" cx="482" cy="104" r="30"><stop offset="0" stop-color="#8466ff"/><stop offset="0.55" stop-color="#5f39f9"/><stop offset="1" stop-color="#4a3cf2"/></radialGradient><clipPath id="od-back"><rect x="-400" y="-300" width="800" height="300"/></clipPath><clipPath id="od-front"><rect x="-400" y="0" width="800" height="300"/></clipPath><clipPath id="od-ring"><path d="M-255 0a255 104 0 1 0 510 0a255 104 0 1 0 -510 0ZM-214 -4a214 90 0 1 0 428 0a214 90 0 1 0 -428 0Z" clip-rule="evenodd"/></clipPath><clipPath id="od-planetClip"><circle cx="256" cy="258" r="174"/></clipPath><filter id="od-soft" x="-20%" y="-50%" width="140%" height="200%"><feGaussianBlur stdDeviation="10"/></filter><filter id="od-shadow" x="-30%" y="-30%" width="160%" height="160%"><feDropShadow dx="0" dy="6" stdDeviation="9" flood-color="#000a33" flood-opacity="0.35"/></filter></defs><g transform="translate(245.5 258) rotate(-24)"><path d="M-255 0a255 104 0 1 0 510 0a255 104 0 1 0 -510 0ZM-214 -4a214 90 0 1 0 428 0a214 90 0 1 0 -428 0Z" fill-rule="evenodd" fill="url(#od-ringBack)" clip-path="url(#od-back)"/></g><circle cx="256" cy="258" r="174" fill="url(#od-planet)"/><circle cx="256" cy="258" r="174" fill="url(#od-core)"/><g clip-path="url(#od-planetClip)"><g transform="translate(245.5 258) rotate(-24)"><path d="M-255 26A255 104 0 0 0 255 26" fill="none" stroke="url(#od-ringShadow)" stroke-width="44" filter="url(#od-soft)"/></g></g><circle cx="256" cy="258" r="174" fill="url(#od-gloss)"/><g filter="url(#od-shadow)"><path d="M190 146H293Q298 146 301.5 149.5L350.5 198.5Q354 202 354 207V340A22 22 0 0 1 332 362H190A22 22 0 0 1 168 340V168A22 22 0 0 1 190 146Z" fill="url(#od-doc)"/></g><path d="M299 152Q299 147 302.5 150.5L350.5 198.5Q354 202 349 205.5L346 208H315A16 16 0 0 1 299 192Z" fill="url(#od-fold)"/><g stroke="url(#od-line)" stroke-width="20" stroke-linecap="round"><path d="M210 235H275"/><path d="M210 277H315"/><path d="M210 319H260"/></g><g transform="translate(245.5 258) rotate(-24)"><g clip-path="url(#od-front)"><path d="M-255 0a255 104 0 1 0 510 0a255 104 0 1 0 -510 0ZM-214 -4a214 90 0 1 0 428 0a214 90 0 1 0 -428 0Z" fill-rule="evenodd" fill="url(#od-ringFront)"/><path d="M-214 -4A214 90 0 0 0 214 -4" fill="none" stroke="url(#od-ringHi)" stroke-width="11" clip-path="url(#od-ring)"/></g></g><circle cx="488.00" cy="112.00" r="22" fill="url(#od-sat)"/></svg>
